<svg width="200" height="200" viewBox="0 0 200 200" fill="none" xmlns="http://www.w3.org/2000/svg">
<path d="M171.34 86.8489L168.779 84.2895L177.17 75.8989C181.918 71.1508 184.29 64.9274 184.29 58.704C184.29 52.4805 181.918 46.2571 177.17 41.509C167.674 32.0129 152.277 32.0129 142.78 41.509L119.098 56.9879L100 84.2899L101.608 86.8493H171.34V86.8489Z" fill="#BDEB73"/>
<path d="M29.6125 82.6824L31.2208 84.2898L22.8301 92.6804C18.0821 97.4285 15.7102 103.652 15.7102 109.875C15.7102 116.099 18.0821 122.322 22.8301 127.07C32.3262 136.566 47.7235 136.566 57.2196 127.07L82.379 111.286L100 84.2898L98.9051 82.6824H29.6125Z" fill="#BDEB73"/>
<path d="M170.181 200C170.114 200 170.048 199.999 169.981 199.997C165.776 199.889 162.456 196.393 162.563 192.188C163.597 151.978 138.573 133.426 138.32 133.243C134.911 130.78 134.143 126.019 136.607 122.61C139.07 119.2 143.831 118.434 147.24 120.896C148.539 121.834 179.027 144.425 177.79 192.579C177.684 196.718 174.296 200 170.181 200Z" fill="#7AA82D"/>
<path d="M177.791 192.58C177.682 196.716 174.294 200 170.181 200C170.113 200 170.048 200 169.98 199.996C168.869 199.968 167.823 199.702 166.881 199.252C169.372 198.052 171.123 195.533 171.199 192.579C172.435 144.426 141.948 121.835 140.648 120.897C140.274 120.628 139.884 120.394 139.481 120.205C141.916 119.038 144.897 119.203 147.24 120.897C148.54 121.835 179.026 144.427 177.791 192.58Z" fill="#729B23"/>
<path d="M103.255 12.2539L100 15.5105L91.6095 7.11992C86.8614 2.37187 80.638 0 74.4145 0C68.1911 0 61.9677 2.37187 57.2196 7.11992C47.7235 16.616 47.7235 32.0133 57.2196 41.5094L68.6571 65.8375L100 84.2898L103.255 81.0348V12.2539Z" fill="#BDEB73"/>
<path d="M142.781 41.5094L100 84.2898L95.1301 79.4199L133.036 41.5094C142.532 32.0133 142.532 16.616 133.036 7.11992C129.532 3.61641 125.229 1.40586 120.711 0.491797C122.317 0.160937 123.949 0 125.586 0C131.809 0 138.032 2.37187 142.781 7.11992C152.276 16.616 152.276 32.0133 142.781 41.5094Z" fill="#A4E540"/>
<path d="M142.781 41.5094L100 84.2898V15.5105L108.386 7.11992C111.89 3.61641 116.194 1.40586 120.711 0.491797C122.317 0.160937 123.949 0 125.586 0C131.809 0 138.032 2.37187 142.781 7.11992C152.276 16.616 152.276 32.0133 142.781 41.5094Z" fill="#A4E540"/>
<path d="M142.781 41.5094L100 84.2898V74.55L133.036 41.5094C142.532 32.0133 142.532 16.616 133.036 7.11992C129.533 3.61641 125.229 1.40586 120.711 0.491797C122.317 0.160937 123.949 0 125.586 0C131.809 0 138.032 2.37187 142.781 7.11992C152.276 16.616 152.276 32.0133 142.781 41.5094Z" fill="#8EC737"/>
<path d="M142.78 127.07L125.319 101.406L100 84.2898L95.7031 88.5867V157.368L100 153.069L108.391 161.46C113.139 166.208 119.362 168.58 125.586 168.58C131.809 168.58 138.032 166.208 142.78 161.46C152.276 151.963 152.276 136.566 142.78 127.07Z" fill="#BDEB73"/>
<path d="M57.2196 127.07L100 84.2898L104.87 89.1597L66.9641 127.07C57.468 136.566 57.468 151.964 66.9641 161.46C70.4676 164.963 74.7715 167.174 79.2887 168.088C77.6828 168.419 76.0508 168.58 74.4145 168.58C68.191 168.58 61.968 166.208 57.2196 161.46C47.7239 151.963 47.7239 136.566 57.2196 127.07Z" fill="#A4E540"/>
<path d="M57.2196 127.07L100 84.2898V153.069L91.6137 161.46C88.1102 164.963 83.8063 167.174 79.2887 168.088C77.6828 168.419 76.0508 168.58 74.4145 168.58C68.191 168.58 61.968 166.208 57.2196 161.46C47.7239 151.963 47.7239 136.566 57.2196 127.07Z" fill="#A4E540"/>
<path d="M57.2196 127.07L100 84.2898V94.0296L66.9641 127.07C57.468 136.566 57.468 151.964 66.9641 161.46C70.4676 164.963 74.7715 167.174 79.2887 168.088C77.6828 168.419 76.0508 168.58 74.4145 168.58C68.191 168.58 61.968 166.208 57.2196 161.46C47.7239 151.963 47.7239 136.566 57.2196 127.07Z" fill="#8EC737"/>
<path d="M142.78 127.07L100 84.2898L104.87 79.4199L142.78 117.326C152.277 126.822 167.674 126.822 177.17 117.326C180.673 113.822 182.884 109.518 183.798 105.001C184.129 106.607 184.29 108.239 184.29 109.875C184.29 116.098 181.918 122.321 177.17 127.07C167.674 136.566 152.276 136.566 142.78 127.07Z" fill="#A4E540"/>
<path d="M142.78 127.07L100 84.2898H168.779L177.17 92.6761C180.673 96.1796 182.884 100.484 183.798 105.001C184.129 106.607 184.29 108.239 184.29 109.875C184.29 116.099 181.918 122.322 177.17 127.07C167.674 136.566 152.276 136.566 142.78 127.07Z" fill="#A4E540"/>
<path d="M142.78 127.07L100 84.2898H109.74L142.78 117.326C152.277 126.822 167.674 126.822 177.17 117.326C180.673 113.822 182.884 109.518 183.798 105.001C184.129 106.607 184.29 108.239 184.29 109.875C184.29 116.098 181.918 122.321 177.17 127.07C167.674 136.566 152.276 136.566 142.78 127.07Z" fill="#8EC737"/>
<path d="M57.22 41.5094L100 84.2898L95.1301 89.1597L57.2196 51.2539C47.7235 41.7578 32.3262 41.7578 22.8301 51.2539C19.3266 54.7574 17.1161 59.0613 16.202 63.5789C15.8711 61.973 15.7102 60.341 15.7102 58.7047C15.7102 52.4812 18.0821 46.2582 22.8301 41.5097C32.3262 32.0133 47.7239 32.0133 57.22 41.5094Z" fill="#A4E540"/>
<path d="M57.22 41.5094L100 84.2899H31.2208L22.8301 75.9035C19.3266 72.4 17.1161 68.0961 16.202 63.5785C15.8711 61.9727 15.7102 60.3407 15.7102 58.7043C15.7102 52.4809 18.0821 46.2578 22.8301 41.5094C32.3262 32.0133 47.7239 32.0133 57.22 41.5094Z" fill="#A4E540"/>
<path d="M57.22 41.5094L100 84.2898H90.2602L57.2196 51.2539C47.7235 41.7578 32.3262 41.7578 22.8301 51.2539C19.3266 54.7574 17.1161 59.0613 16.202 63.5789C15.8711 61.973 15.7102 60.341 15.7102 58.7047C15.7102 52.4812 18.0821 46.2582 22.8301 41.5097C32.3262 32.0133 47.7239 32.0133 57.22 41.5094Z" fill="#8EC737"/>
<path d="M100 96.1691C106.561 96.1691 111.879 90.8506 111.879 84.2898C111.879 77.7291 106.561 72.4105 100 72.4105C93.4393 72.4105 88.1207 77.7291 88.1207 84.2898C88.1207 90.8506 93.4393 96.1691 100 96.1691Z" fill="#7AA82D"/>
<path d="M111.879 84.2898C111.879 90.8492 106.559 96.1691 100 96.1691C98.7286 96.1691 97.5052 95.9679 96.3583 95.5976C101.135 94.0605 104.596 89.5777 104.596 84.2898C104.596 79.0023 101.135 74.5191 96.3583 72.982C97.5052 72.6117 98.7286 72.4105 100 72.4105C106.559 72.4105 111.879 77.7304 111.879 84.2898Z" fill="#729B23"/>
</svg>
