<svg width="200" height="200" viewBox="0 0 200 200" fill="none" xmlns="http://www.w3.org/2000/svg">
<path d="M99.6612 29.9732C92.2852 29.9732 86.2727 23.9607 86.2727 16.5847V13.3885C86.2727 6.01252 92.2852 0 99.6612 0C107.037 0 113.05 6.01252 113.05 13.3885V16.5847C113.027 23.9607 107.037 29.9732 99.6612 29.9732ZM99.6612 2.32454C93.5592 2.32454 88.5972 7.28654 88.5972 13.3885V16.5847C88.5972 22.6866 93.5592 27.6486 99.6612 27.6486C105.763 27.6486 110.725 22.6866 110.725 16.5847V13.3885C110.703 7.28654 105.741 2.32454 99.6612 2.32454Z" fill="#986612"/>
<path d="M100.443 50.2682H99.1471C93.7381 50.2682 89.3348 45.8427 89.3348 40.456V24.4077C89.3348 18.9987 93.7604 14.5955 99.1471 14.5955H100.443C105.852 14.5955 110.256 19.021 110.256 24.4077V40.456C110.278 45.8427 105.852 50.2682 100.443 50.2682Z" fill="#D8962A"/>
<path d="M16 116.205C16 138.429 24.8284 159.742 40.5431 175.457C56.2577 191.172 77.5714 200 99.7952 200C122.019 200 143.333 191.172 159.047 175.457C174.762 159.742 183.591 138.429 183.591 116.205C183.591 93.9808 174.762 72.6671 159.047 56.9525C143.333 41.2378 122.019 32.4094 99.7952 32.4094C77.5714 32.4094 56.2577 41.2378 40.5431 56.9525C24.8284 72.6671 16 93.9808 16 116.205Z" fill="#F6B13A"/>
<path d="M30.7072 116.205C30.7072 125.278 32.4942 134.261 35.9662 142.644C39.4382 151.026 44.5272 158.642 50.9426 165.057C57.358 171.473 64.9742 176.562 73.3564 180.034C81.7385 183.506 90.7224 185.293 99.7952 185.293C108.868 185.293 117.852 183.506 126.234 180.034C134.616 176.562 142.232 171.473 148.648 165.057C155.063 158.642 160.152 151.026 163.624 142.644C167.096 134.261 168.883 125.278 168.883 116.205C168.883 107.132 167.096 98.1481 163.624 89.7659C160.152 81.3838 155.063 73.7675 148.648 67.3521C142.232 60.9367 134.616 55.8477 126.234 52.3757C117.852 48.9037 108.868 47.1167 99.7952 47.1167C90.7224 47.1167 81.7385 48.9037 73.3564 52.3757C64.9742 55.8477 57.358 60.9367 50.9426 67.3521C44.5272 73.7675 39.4382 81.3838 35.9662 89.7659C32.4942 98.1481 30.7072 107.132 30.7072 116.205Z" fill="#F35426"/>
<path d="M43.9839 116.205C43.9839 123.534 45.4275 130.792 48.2323 137.563C51.0371 144.334 55.1481 150.487 60.3307 155.669C65.5132 160.852 71.6658 164.963 78.4372 167.768C85.2085 170.573 92.466 172.016 99.7952 172.016C107.124 172.016 114.382 170.573 121.153 167.768C127.925 164.963 134.077 160.852 139.26 155.669C144.442 150.487 148.553 144.334 151.358 137.563C154.163 130.792 155.607 123.534 155.607 116.205C155.607 101.403 149.726 87.2069 139.26 76.7402C128.793 66.2735 114.597 60.3934 99.7952 60.3934C84.9931 60.3934 70.7973 66.2735 60.3307 76.7402C49.864 87.2069 43.9839 101.403 43.9839 116.205Z" fill="#F4F4F4"/>
<path d="M55.249 116.205H33.9035C32.2048 116.205 30.7966 114.819 30.7966 113.098C30.7966 111.399 32.1824 109.991 33.9035 109.991H55.249C56.9477 109.991 58.3559 111.377 58.3559 113.098C58.3335 114.819 56.9477 116.205 55.249 116.205ZM102.768 158.695V180.018C102.768 181.717 101.382 183.125 99.6612 183.125C97.9625 183.125 96.5543 181.739 96.5543 180.018V158.672C96.5543 156.974 97.9401 155.565 99.6612 155.565C101.36 155.588 102.768 156.974 102.768 158.695ZM102.768 52.0116V73.3572C102.768 75.0559 101.382 76.464 99.6612 76.464C97.9625 76.464 96.5543 75.0782 96.5543 73.3572V52.0116C96.5543 50.3129 97.9401 48.9048 99.6612 48.9048C101.36 48.9048 102.768 50.3129 102.768 52.0116ZM166.268 116.205H144.923C143.224 116.205 141.816 114.819 141.816 113.098C141.816 111.399 143.202 109.991 144.923 109.991H166.268C167.967 109.991 169.375 111.377 169.375 113.098C169.375 114.819 167.989 116.205 166.268 116.205Z" fill="#C9CCC7"/>
<path d="M93.4699 125.033L64.8601 94.8368L104.914 106.638L93.4699 125.033Z" fill="#EC5C3D"/>
<path d="M93.3804 124.989L133.278 136.701L104.534 106.415L93.3804 124.989Z" fill="#2E9DC7"/>
</svg>
