<svg width="200" height="200" viewBox="0 0 200 200" fill="none" xmlns="http://www.w3.org/2000/svg">
<g clip-path="url(#clip0_1674_5359)">
<path d="M168.965 134.483H31.0334C27.2232 134.483 24.1368 131.397 24.1368 127.586C24.1368 123.776 27.2232 120.69 31.0334 120.69H168.965C172.775 120.69 175.862 123.776 175.862 127.586C175.862 131.397 172.776 134.483 168.965 134.483Z" fill="#F3D55B"/>
<path d="M168.965 175.863H31.0334C27.2232 175.863 24.1368 172.777 24.1368 168.966C24.1368 165.156 27.2232 162.07 31.0334 162.07H168.965C172.775 162.07 175.862 165.156 175.862 168.966C175.862 172.777 172.776 175.863 168.965 175.863Z" fill="#F3D55B"/>
<path d="M34.4818 162.069H165.517V134.483H34.4818V162.069Z" fill="#B25E1F"/>
<path d="M86.206 151.724H58.6195C56.7124 151.724 55.171 150.179 55.171 148.276C55.171 146.372 56.7124 144.827 58.6195 144.827H86.206C88.113 144.827 89.6544 146.372 89.6544 148.276C89.6544 150.18 88.113 151.724 86.206 151.724Z" fill="#B25E1F"/>
<path d="M141.379 151.724H113.792C111.885 151.724 110.344 150.179 110.344 148.276C110.344 146.372 111.885 144.827 113.792 144.827H141.379C143.286 144.827 144.827 146.372 144.827 148.276C144.827 150.18 143.286 151.724 141.379 151.724Z" fill="#B25E1F"/>
<path d="M103.448 148.276C103.448 150.18 101.903 151.725 99.9991 151.725C98.0956 151.725 96.5507 150.18 96.5507 148.276C96.5507 146.373 98.0956 144.828 99.9991 144.828C101.903 144.828 103.448 146.373 103.448 148.276Z" fill="#B25E1F"/>
<path d="M158.621 148.276C158.621 150.18 157.076 151.725 155.172 151.725C153.269 151.725 151.724 150.18 151.724 148.276C151.724 146.373 153.269 144.828 155.172 144.828C157.076 144.828 158.621 146.373 158.621 148.276Z" fill="#B25E1F"/>
<path d="M41.3784 148.276C41.3784 146.373 42.9233 144.828 44.8269 144.828C46.7304 144.828 48.2753 146.373 48.2753 148.276C48.2753 150.18 46.7304 151.725 44.8269 151.725C42.9233 151.724 41.3784 150.18 41.3784 148.276Z" fill="#B25E1F"/>
<path d="M65.3903 69.1634L65.518 68.9669C25.6451 67.4564 1.98635e-05 24.1389 1.98635e-05 24.1389C1.98635e-05 24.1389 -0.389826 90.3291 39.6932 106.219C43.3659 90.8706 52.6796 77.7185 65.3903 69.1634Z" fill="#F3EDBF"/>
<path d="M134.482 68.9653L134.61 69.1618C147.32 77.7169 156.631 90.8721 160.303 106.221C200.389 90.3311 200 24.1377 200 24.1377C200 24.1377 174.355 67.4587 134.482 68.9653Z" fill="#F3EDBF"/>
<path d="M99.9994 86.2069C96.2064 86.2069 93.1029 83.1034 93.1029 79.3104V51.7239C93.1029 47.9309 96.2064 44.8274 99.9994 44.8274C103.792 44.8274 106.896 47.9309 106.896 51.7239V79.3104C106.896 83.1034 103.792 86.2069 99.9994 86.2069Z" fill="#F3D55B"/>
<path d="M106.896 59.0249V79.3113C106.896 83.1043 103.792 86.2079 99.9994 86.2079C96.2064 86.2079 93.1029 83.1043 93.1029 79.3113V59.0249C62.0715 62.4593 37.9299 88.7423 37.9299 120.691H162.069C162.069 88.7423 137.927 62.4593 106.896 59.0249Z" fill="#B25E1F"/>
<path d="M86.206 100H72.4129C70.5059 100 68.9645 98.4553 68.9645 96.5517C68.9645 94.6482 70.5059 93.1033 72.4129 93.1033H86.206C88.113 93.1033 89.6544 94.6482 89.6544 96.5517C89.6544 98.4553 88.113 100 86.206 100Z" fill="#B25E1F"/>
<path d="M55.1714 96.5517C55.1714 94.6482 56.7163 93.1033 58.6198 93.1033C60.5234 93.1033 62.0683 94.6482 62.0683 96.5517C62.0683 98.4553 60.5234 100 58.6198 100C56.7163 100 55.1714 98.4553 55.1714 96.5517Z" fill="#B25E1F"/>
<path d="M131.034 106.897H117.241C115.334 106.897 113.792 105.352 113.792 103.448C113.792 101.545 115.334 99.9998 117.241 99.9998H131.034C132.941 99.9998 134.482 101.545 134.482 103.448C134.482 105.352 132.941 106.897 131.034 106.897Z" fill="#B25E1F"/>
<path d="M148.275 103.448C148.275 105.352 146.731 106.897 144.827 106.897C142.923 106.897 141.379 105.352 141.379 103.448C141.379 101.545 142.923 99.9998 144.827 99.9998C146.731 100 148.275 101.545 148.275 103.448Z" fill="#B25E1F"/>
</g>
<defs>
<clipPath id="clip0_1674_5359">
<rect width="200" height="200" fill="white"/>
</clipPath>
</defs>
</svg>
