<svg width="200" height="200" viewBox="0 0 200 200" fill="none" xmlns="http://www.w3.org/2000/svg">
<g clip-path="url(#clip0_1674_5390)">
<path d="M151.337 145.189L108.695 102.547V65.2178C108.695 55.6284 100.894 47.8265 91.3037 47.8265C81.7139 47.8265 73.9123 55.628 73.9123 65.2178V67.7647L7.42928 1.28125C7.42459 1.27656 7.41991 1.27187 7.41483 1.26679L7.41444 1.2664C7.41327 1.26523 7.41131 1.26367 7.41014 1.2625C6.6242 0.482421 5.54257 0 4.34765 0C1.94648 0 0 1.94648 0 4.34765V110.869C0 133.645 18.5293 152.174 41.3042 152.174C64.0792 152.174 82.6084 133.644 82.6084 110.869V88.7576L99.9998 106.149V139.13C99.9998 141.531 101.946 143.478 104.347 143.478C106.749 143.478 108.695 141.531 108.695 139.13V114.845L145.188 151.338C146.037 152.187 147.15 152.611 148.262 152.611C149.375 152.611 150.488 152.187 151.336 151.338C153.035 149.64 153.035 146.887 151.337 145.189ZM73.9127 110.87C73.9127 128.85 59.2846 143.478 41.3042 143.478C23.3238 143.478 8.69569 128.85 8.69569 110.87V14.8453L73.9127 80.0623V110.87ZM82.6084 76.4604V65.2178C82.6084 60.4229 86.5092 56.5222 91.3041 56.5222C96.099 56.5222 99.9998 60.4229 99.9998 65.2178V93.8514L82.6084 76.4604Z" fill="#D8BF77"/>
<path d="M151.336 151.338C150.486 152.186 149.374 152.611 148.261 152.611C147.149 152.611 146.036 152.186 145.187 151.338L108.696 114.846V102.548L151.336 145.189C153.034 146.886 153.034 149.639 151.336 151.338ZM1.27309 1.27378C-0.42456 2.97143 -0.423778 5.72533 1.27387 7.42376L99.9998 106.15V93.8525L7.42152 1.273C5.72308 -0.425438 2.97075 -0.423485 1.27309 1.27378Z" fill="#636363"/>
<path d="M162.361 143.915L196.18 177.734C201.273 182.827 201.273 191.086 196.18 196.18C191.086 201.273 182.827 201.273 177.734 196.18L143.915 162.361C138.822 157.268 138.822 149.009 143.915 143.915C149.009 138.822 157.268 138.822 162.361 143.915Z" fill="#B94B00"/>
<path d="M196.18 177.733C196.352 177.906 196.517 178.082 196.677 178.261C196.517 178.44 196.352 178.616 196.18 178.788C191.086 183.882 182.827 183.882 177.734 178.788L143.915 144.97C143.743 144.797 143.578 144.621 143.418 144.442C143.578 144.263 143.744 144.087 143.915 143.915C149.009 138.821 157.268 138.821 162.361 143.915L196.18 177.733Z" fill="#EA5F00"/>
<path d="M108.695 147.826V182.608C108.695 192.198 100.894 200 91.3037 200C81.7139 200 73.9123 192.198 73.9123 182.608V171.366L68.2909 176.988C66.5932 178.685 63.8401 178.685 62.1416 176.988C60.444 175.29 60.444 172.537 62.1416 170.838L75.185 157.795C76.4279 156.552 78.2983 156.179 79.9233 156.853C81.5479 157.526 82.6072 159.111 82.6072 160.869V182.608C82.6072 187.403 86.508 191.304 91.3029 191.304C96.0978 191.304 99.9986 187.403 99.9986 182.608V147.826C99.9986 145.425 101.945 143.478 104.346 143.478C106.747 143.478 108.695 145.425 108.695 147.826Z" fill="#636363"/>
<path d="M117.391 139.13C117.391 146.323 111.54 152.174 104.347 152.174C97.1552 152.174 91.3041 146.323 91.3041 139.13C91.3041 131.938 97.1552 126.087 104.347 126.087C111.539 126.087 117.391 131.938 117.391 139.13Z" fill="#FF4800"/>
<path d="M113.043 136.957C113.043 140.553 110.117 143.479 106.521 143.479C102.925 143.479 99.9994 140.553 99.9994 136.957C99.9994 133.361 102.925 130.435 106.521 130.435C110.118 130.435 113.043 133.361 113.043 136.957Z" fill="#FF7443"/>
</g>
<defs>
<clipPath id="clip0_1674_5390">
<rect width="200" height="200" fill="white"/>
</clipPath>
</defs>
</svg>
