<svg width="200" height="200" viewBox="0 0 200 200" fill="none" xmlns="http://www.w3.org/2000/svg">
<path d="M175.639 169.44L183.914 176.773C186.716 179.256 184.96 183.886 181.216 183.886H136.284C134.037 183.886 132.216 182.064 132.216 179.817V154.086H181.687C185.371 154.086 187.158 158.59 184.477 161.116L175.639 169.44Z" fill="#E84649"/>
<path d="M156.405 154.086V160.73C156.405 166.112 152.028 170.493 146.641 170.493H132.216V154.086H156.405Z" fill="#D73337"/>
<path d="M67.784 154.086V179.817C67.784 182.064 65.9625 183.886 63.7156 183.886H18.7836C15.0399 183.886 13.2836 179.256 16.0856 176.773L24.3606 169.44L15.5231 161.116C12.8418 158.59 14.6289 154.086 18.3121 154.086H67.784Z" fill="#E84649"/>
<path d="M43.595 154.086H67.7844V170.493H53.3586C47.9723 170.493 43.595 166.112 43.595 160.73V154.086Z" fill="#D73337"/>
<path d="M146.282 150.687C145.144 150.687 144.055 150.041 143.544 148.942C142.84 147.431 143.494 145.636 145.005 144.932C158.232 138.772 167.972 130.076 173.955 119.086C178.754 110.269 181.196 99.9114 181.212 88.3024C181.239 68.218 173.909 51.1809 173.836 51.011C173.169 49.484 173.866 47.7051 175.393 47.0379C176.919 46.3707 178.698 47.0657 179.366 48.5922C179.687 49.3258 187.232 66.8055 187.248 88.1192C187.264 108.092 180.39 135.111 147.553 150.404C147.142 150.595 146.708 150.687 146.282 150.687Z" fill="#83B832"/>
<path d="M176.731 26.4249C180.084 36.1323 180.975 50.2463 176.587 51.762C172.198 53.2776 164.19 41.6213 160.837 31.9139C157.485 22.2065 160.057 18.1237 164.446 16.6081C168.835 15.092 173.378 16.7174 176.731 26.4249Z" fill="#BDEB73"/>
<path d="M176.585 51.7601C175.564 52.114 174.344 51.7519 173.03 50.8652C174.429 45.7718 173.298 36.0976 170.8 28.8644C168.148 21.1878 164.751 18.5679 161.273 18.5558C162.127 17.6609 163.213 17.0304 164.446 16.607C168.835 15.0937 173.379 16.7167 176.732 26.4234C180.084 36.1343 180.975 50.2468 176.585 51.7601Z" fill="#9AD63B"/>
<path d="M184.392 89.4314C182.366 90.9286 178.164 89.045 173.77 85.6927C170.064 82.8614 166.22 78.9884 163.425 75.2091C157.319 66.9466 158.551 62.2845 162.286 59.5224C165.915 56.8415 170.573 56.9474 176.439 64.5423C176.61 64.7579 176.776 64.9817 176.948 65.2138C183.05 73.472 188.126 86.6692 184.392 89.4314Z" fill="#8EC737"/>
<path d="M184.392 89.4313C182.366 90.9286 178.164 89.045 173.77 85.6926C173.53 83.9594 173.461 82.0028 173.563 79.8305C173.787 74.9895 174.844 69.4243 176.439 64.5422C176.61 64.7579 176.776 64.9817 176.948 65.2137C183.049 73.4719 188.126 86.6692 184.392 89.4313Z" fill="#83B832"/>
<path d="M182.515 64.4375C178.896 74.0488 177.615 88.1328 181.96 89.7688C186.306 91.4051 194.632 79.9738 198.251 70.3625C201.87 60.7512 199.411 56.5992 195.066 54.9629C190.721 53.327 186.134 54.8262 182.515 64.4375Z" fill="#BDEB73"/>
<path d="M198.252 70.3638C194.631 79.9727 186.308 91.4044 181.959 89.7688C180.946 89.3907 180.242 88.3329 179.799 86.8153C184.136 83.8294 189.481 75.6157 192.191 68.4231C195.043 60.8442 194.119 56.6622 191.471 54.4286C192.671 54.3024 193.879 54.5142 195.067 54.9614C199.412 56.6013 201.869 60.7509 198.252 70.3638Z" fill="#9AD63B"/>
<path d="M173.912 130.825C171.459 131.403 168.343 128.01 165.63 123.193C163.339 119.133 161.338 114.052 160.26 109.479C157.908 99.4838 160.882 95.6799 165.402 94.6182C169.8 93.585 174.039 95.5213 176.431 104.821C176.5 105.086 176.565 105.354 176.63 105.631C178.977 115.63 178.432 129.759 173.912 130.825Z" fill="#8EC737"/>
<path d="M173.912 130.825C171.459 131.403 168.343 128.01 165.63 123.193C166.089 121.505 166.797 119.682 167.749 117.725C169.869 113.364 173.038 108.674 176.431 104.821C176.5 105.085 176.565 105.354 176.63 105.63C178.977 115.63 178.432 129.759 173.912 130.825Z" fill="#83B832"/>
<path d="M182.051 107.117C174.933 114.521 168.198 126.956 171.545 130.174C174.892 133.392 187.054 126.175 194.172 118.772C201.29 111.369 200.67 106.584 197.322 103.365C193.975 100.147 189.169 99.7147 182.051 107.117Z" fill="#BDEB73"/>
<path d="M194.172 118.771C187.053 126.175 174.893 133.392 171.544 130.174C171.028 129.678 170.751 128.958 170.682 128.071C175.848 126.553 183.236 121.497 188.187 116.351C195.12 109.142 194.713 104.415 191.596 101.197C193.883 100.969 195.762 101.864 197.32 103.365C200.669 106.583 201.291 111.371 194.172 118.771Z" fill="#9AD63B"/>
<path d="M53.7184 150.687C53.2914 150.687 52.8586 150.596 52.4461 150.404C19.6102 135.111 12.7364 108.092 12.752 88.1196C12.7684 66.8059 20.3129 49.3262 20.6344 48.5927C21.3028 47.0661 23.0817 46.3696 24.6094 47.0384C26.136 47.7067 26.8321 49.4864 26.1637 51.0134C26.0492 51.277 18.7606 68.2747 18.7883 88.3028C18.8039 99.9118 21.2461 110.269 26.0453 119.086C32.0278 130.076 41.7676 138.772 54.9946 144.932C56.5055 145.636 57.1602 147.431 56.4563 148.942C55.9446 150.041 54.8559 150.687 53.7184 150.687Z" fill="#83B832"/>
<path d="M23.2687 26.425C19.9164 36.1324 19.0246 50.2464 23.4133 51.7621C27.8019 53.2777 35.8101 41.6214 39.1625 31.914C42.5148 22.2066 39.9426 18.1238 35.5535 16.6082C31.1644 15.0925 26.6215 16.7175 23.2687 26.425Z" fill="#BDEB73"/>
<path d="M39.1625 31.9155C35.8102 41.6221 27.8043 53.2776 23.4145 51.76C22.3363 51.3897 21.5758 50.2589 21.0957 48.6155C25.3672 45.5604 30.5379 37.135 33.0645 29.8206C35.5949 22.4897 34.7488 18.3647 32.2914 16.1393C33.3734 16.0499 34.468 16.2331 35.5539 16.6073C39.9437 18.1245 42.5145 22.2046 39.1625 31.9155Z" fill="#9AD63B"/>
<path d="M15.6078 89.4311C17.6335 90.9284 21.8363 89.0448 26.2296 85.6924C29.9359 82.8612 33.78 78.9881 36.575 75.2088C42.6812 66.9463 41.4488 62.2842 37.714 59.5221C34.0851 56.8413 29.4273 56.9471 23.5609 64.542C23.3902 64.7577 23.2234 64.9815 23.0523 65.2135C16.9503 73.4717 11.8734 86.669 15.6078 89.4311Z" fill="#8EC737"/>
<path d="M36.575 75.2088C33.7801 78.9881 29.936 82.8612 26.2297 85.6924C21.836 89.0448 17.6336 90.9284 15.6078 89.4311C15.0586 89.0245 14.6965 88.3858 14.5055 87.576C16.2059 86.8354 18.1223 85.6354 20.0746 84.1467C23.7809 81.3151 27.625 77.4424 30.4199 73.6631C36.4285 65.535 35.3301 60.8889 31.7379 58.1147C33.9793 57.5858 35.9688 58.2327 37.7141 59.5225C41.4489 62.2842 42.6813 66.9463 36.575 75.2088Z" fill="#83B832"/>
<path d="M15.6078 89.4311C17.6335 90.9283 21.8363 89.0447 26.2296 85.6924C26.4695 83.9592 26.539 82.0025 26.4371 79.8303C26.2132 74.9893 25.1554 69.424 23.5609 64.542C23.3902 64.7576 23.2234 64.9814 23.0523 65.2135C16.9503 73.4717 11.8734 86.6689 15.6078 89.4311Z" fill="#83B832"/>
<path d="M17.4852 64.4374C21.1039 74.0488 22.3848 88.1327 18.0394 89.7687C13.6937 91.405 5.36757 79.9738 1.74882 70.3624C-1.86993 60.7511 0.588667 56.5991 4.93437 54.9628C9.28007 53.3265 13.866 54.8261 17.4852 64.4374Z" fill="#BDEB73"/>
<path d="M18.0406 89.769C16.9461 90.18 15.5996 89.7651 14.1394 88.7561C15.7261 83.8499 14.3265 73.6264 11.5031 66.1292C8.9281 59.2948 5.86873 56.5647 2.75232 56.146C3.3949 55.6495 4.13123 55.2632 4.93279 54.962C9.27771 53.3264 13.8664 54.8276 17.4832 64.4366C21.1039 74.0495 22.3851 88.1335 18.0406 89.769Z" fill="#9AD63B"/>
<path d="M26.0874 130.825C28.5405 131.403 31.6565 128.01 34.3702 123.193C36.6604 119.133 38.662 114.052 39.7401 109.479C42.0917 99.4838 39.1179 95.6799 34.5979 94.6182C30.2003 93.585 25.9612 95.5213 23.569 104.821C23.4999 105.086 23.4347 105.354 23.3698 105.631C21.0225 115.63 21.5675 129.759 26.0874 130.825Z" fill="#8EC737"/>
<path d="M39.7402 109.479C38.662 114.052 36.6605 119.133 34.3702 123.193C31.657 128.01 28.5405 131.402 26.0874 130.825C24.932 130.552 24.037 129.425 23.382 127.733C24.9687 126.378 26.6163 124.124 28.1335 121.427C30.4238 117.367 32.4253 112.286 33.5034 107.713C35.2081 100.472 34.1136 96.4771 31.6648 94.4267C32.6206 94.3048 33.6054 94.3861 34.598 94.6177C39.1175 95.6798 42.0913 99.4837 39.7402 109.479Z" fill="#83B832"/>
<path d="M26.0874 130.825C28.5405 131.403 31.6565 128.01 34.3702 123.193C33.9104 121.505 33.2026 119.682 32.2507 117.725C30.1311 113.364 26.962 108.674 23.569 104.821C23.4999 105.085 23.4347 105.354 23.3698 105.63C21.0225 115.63 21.5675 129.759 26.0874 130.825Z" fill="#83B832"/>
<path d="M17.9488 107.117C25.0671 114.521 31.8019 126.956 28.455 130.174C25.1081 133.392 12.9464 126.175 5.82806 118.772C-1.2903 111.369 -0.669595 106.584 2.67767 103.365C6.02494 100.147 10.8308 99.7147 17.9488 107.117Z" fill="#BDEB73"/>
<path d="M28.4551 130.174C27.3851 131.203 25.4121 131.167 22.9914 130.394C23.8906 125.776 17.9386 115.407 11.6941 108.914C8.27693 105.358 5.39255 103.613 2.94763 103.112C6.27927 100.13 11.0187 99.9108 17.9468 107.119C25.0664 114.52 31.8031 126.956 28.4551 130.174Z" fill="#9AD63B"/>
<path d="M146.643 164.798H53.3567C51.1098 164.798 49.2883 162.977 49.2883 160.73V130.893C49.2883 128.646 51.1098 126.824 53.3567 126.824H146.643C148.89 126.824 150.712 128.646 150.712 130.893V160.73C150.712 162.977 148.89 164.798 146.643 164.798Z" fill="#ED6264"/>
<path d="M150.71 130.894V160.73C150.71 162.975 148.891 164.798 146.642 164.798H137.094C139.343 164.798 141.162 162.975 141.162 160.73V130.894C141.162 128.644 139.344 126.825 137.094 126.825H146.642C148.891 126.825 150.71 128.644 150.71 130.894Z" fill="#E84649"/>
<path d="M115.135 124.477C115.135 128.202 113.786 131.62 111.552 134.256C108.772 137.531 104.628 139.611 100 139.611C95.3723 139.611 91.2278 137.531 88.4485 134.256C86.2137 131.619 84.8649 128.202 84.8649 124.477C84.8649 116.119 91.6422 109.342 100 109.342C108.358 109.342 115.135 116.119 115.135 124.477Z" fill="#FFDBAA"/>
<path d="M115.135 124.477C115.135 128.202 113.786 131.62 111.552 134.256L100 128.182L88.4485 134.256C86.2137 131.619 84.8649 128.202 84.8649 124.477C84.8649 116.119 91.6422 109.342 100 109.342C108.358 109.342 115.135 116.119 115.135 124.477Z" fill="#FFC26D"/>
<path d="M146.689 82.9379L126.954 102.168L131.612 129.328C132.309 133.395 128.043 136.494 124.386 134.577L100 121.757L75.6137 134.577C71.9574 136.495 67.6906 133.396 68.3875 129.328L70.909 114.623L73.0457 102.168L53.3113 82.9383C50.3582 80.0586 51.991 75.0352 56.0719 74.4446L83.3379 70.4833L95.5344 45.7719C97.3594 42.0692 102.641 42.0692 104.466 45.7719L116.662 70.4833L125.747 71.8036L143.928 74.4446C148.009 75.0348 149.642 80.0583 146.689 82.9379Z" fill="#FFCE8B"/>
<path d="M146.689 82.938L126.954 102.168L131.612 129.328C132.309 133.395 128.043 136.494 124.386 134.577L99.9999 121.757L75.6136 134.577C71.9574 136.495 67.6906 133.396 68.3874 129.328L70.9089 114.624C108.752 107.716 121.533 86.9396 125.746 71.8032L143.928 74.4442C148.009 75.0349 149.642 80.0583 146.689 82.938Z" fill="#FFB54E"/>
<path d="M123.813 153.5H76.1872C74.52 153.5 73.1692 152.148 73.1692 150.482C73.1692 148.815 74.5204 147.464 76.1872 147.464H123.813C125.48 147.464 126.831 148.815 126.831 150.482C126.831 152.148 125.48 153.5 123.813 153.5Z" fill="#FFCE8B"/>
</svg>
