<?xml version="1.0" encoding="UTF-8" standalone="no"?>
<svg
   width="24"
   height="24"
   viewBox="0 0 24 24"
   fill="none"
   stroke="currentColor"
   stroke-width="2"
   stroke-linecap="round"
   stroke-linejoin="round"
   class="lucide lucide-fish-icon lucide-fish"
   version="1.1"
   id="svg6"
   sodipodi:docname="fish.svg"
   inkscape:version="1.4.2 (f4327f4, 2025-05-13)"
   xmlns:inkscape="http://www.inkscape.org/namespaces/inkscape"
   xmlns:sodipodi="http://sodipodi.sourceforge.net/DTD/sodipodi-0.dtd"
   xmlns="http://www.w3.org/2000/svg"
   xmlns:svg="http://www.w3.org/2000/svg">
  <defs
     id="defs6" />
  <sodipodi:namedview
     id="namedview6"
     pagecolor="#ffffff"
     bordercolor="#000000"
     borderopacity="0.25"
     inkscape:showpageshadow="2"
     inkscape:pageopacity="0.0"
     inkscape:pagecheckerboard="0"
     inkscape:deskcolor="#d1d1d1"
     inkscape:zoom="6.2976698"
     inkscape:cx="19.531034"
     inkscape:cy="21.357106"
     inkscape:window-width="1920"
     inkscape:window-height="1057"
     inkscape:window-x="-8"
     inkscape:window-y="-8"
     inkscape:window-maximized="1"
     inkscape:current-layer="svg6" />
  <path
     d="M6.5 12c.94-3.46 4.94-6 8.5-6 3.56 0 6.06 2.54 7 6-.94 3.47-3.44 6-7 6s-7.56-2.53-8.5-6Z"
     id="path1"
     style="stroke:#ffffff;stroke-opacity:1;stroke-width:0.7;stroke-dasharray:none" />
  <path
     d="M18 12v.5"
     id="path2"
     style="stroke:#ffffff;stroke-opacity:1;stroke-width:0.7;stroke-dasharray:none" />
  <path
     d="M16 17.93a9.77 9.77 0 0 1 0-11.86"
     id="path3"
     style="stroke:#ffffff;stroke-opacity:1;stroke-width:0.7;stroke-dasharray:none" />
  <path
     d="M7 10.67C7 8 5.58 5.97 2.73 5.5c-1 1.5-1 5 .23 6.5-1.24 1.5-1.24 5-.23 6.5C5.58 18.03 7 16 7 13.33"
     id="path4"
     style="stroke:#ffffff;stroke-opacity:1;stroke-width:0.7;stroke-dasharray:none" />
  <path
     d="M10.46 7.26C10.2 5.88 9.17 4.24 8 3h5.8a2 2 0 0 1 1.98 1.67l.23 1.4"
     id="path5"
     style="stroke:#ffffff;stroke-opacity:1;stroke-width:0.7;stroke-dasharray:none" />
  <path
     d="m16.01 17.93-.23 1.4A2 2 0 0 1 13.8 21H9.5a5.96 5.96 0 0 0 1.49-3.98"
     id="path6"
     style="stroke:#ffffff;stroke-opacity:1;stroke-width:0.7;stroke-dasharray:none" />
</svg>
