<?xml version="1.0" encoding="UTF-8" standalone="no"?>
<svg
   width="24"
   height="24"
   viewBox="0 0 24 24"
   fill="none"
   stroke="currentColor"
   stroke-width="2"
   stroke-linecap="round"
   stroke-linejoin="round"
   class="lucide lucide-guitar-icon lucide-guitar"
   version="1.1"
   id="svg4"
   sodipodi:docname="guitar.svg"
   inkscape:version="1.4.2 (f4327f4, 2025-05-13)"
   xmlns:inkscape="http://www.inkscape.org/namespaces/inkscape"
   xmlns:sodipodi="http://sodipodi.sourceforge.net/DTD/sodipodi-0.dtd"
   xmlns="http://www.w3.org/2000/svg"
   xmlns:svg="http://www.w3.org/2000/svg">
  <defs
     id="defs4" />
  <sodipodi:namedview
     id="namedview4"
     pagecolor="#ffffff"
     bordercolor="#000000"
     borderopacity="0.25"
     inkscape:showpageshadow="2"
     inkscape:pageopacity="0.0"
     inkscape:pagecheckerboard="0"
     inkscape:deskcolor="#d1d1d1"
     inkscape:zoom="12.59534"
     inkscape:cx="25.961983"
     inkscape:cy="10.599158"
     inkscape:window-width="1920"
     inkscape:window-height="1057"
     inkscape:window-x="-8"
     inkscape:window-y="-8"
     inkscape:window-maximized="1"
     inkscape:current-layer="svg4" />
  <path
     d="m11.9 12.1 4.514-4.514"
     id="path1"
     style="stroke:#000000;stroke-opacity:1;fill:none;fill-opacity:1" />
  <path
     d="M20.1 2.3a1 1 0 0 0-1.4 0l-1.114 1.114A2 2 0 0 0 17 4.828v1.344a2 2 0 0 1-.586 1.414A2 2 0 0 1 17.828 7h1.344a2 2 0 0 0 1.414-.586L21.7 5.3a1 1 0 0 0 0-1.4z"
     id="path2"
     style="stroke:#000000;stroke-opacity:1;fill:none;fill-opacity:1" />
  <path
     d="m6 16 2 2"
     id="path3"
     style="stroke:#000000;stroke-opacity:1;fill:none;fill-opacity:1" />
  <path
     d="M8.23 9.85A3 3 0 0 1 11 8a5 5 0 0 1 5 5 3 3 0 0 1-1.85 2.77l-.92.38A2 2 0 0 0 12 18a4 4 0 0 1-4 4 6 6 0 0 1-6-6 4 4 0 0 1 4-4 2 2 0 0 0 1.85-1.23z"
     id="path4"
     style="stroke:#000000;stroke-opacity:1;fill:none;fill-opacity:1" />
</svg>
